# Blender v2.79 (sub 0) OBJ File: 'small_house.blend'
# www.blender.org
o Building_Cube
v 2.000000 0.106511 -1.000000
v 2.000000 0.106511 1.000000
v -2.000000 0.106511 1.000000
v -1.999999 0.106511 -1.000000
v 2.000001 2.000000 -0.999999
v 1.999999 2.000000 1.000001
v -2.000001 2.000000 1.000000
v -2.000000 2.000000 -1.000000
v 2.137525 0.030663 -1.068762
v 2.137525 0.030663 1.068763
v -2.137526 0.030663 1.068762
v -2.137524 0.030663 -1.068763
v 2.137525 -0.139283 -1.068762
v 2.137525 -0.139283 1.068763
v -2.137526 -0.139283 1.068762
v -2.137524 -0.139283 -1.068763
v 0.932026 1.001418 1.131080
v 0.932026 0.951924 1.131080
v 0.932026 1.001418 0.892786
v 0.932026 0.951924 0.892786
v 1.590271 1.001418 1.131080
v 1.590271 0.951924 1.131080
v 1.590271 1.001418 0.892786
v 1.590271 0.951924 0.892786
v 1.064042 1.540048 1.022414
v 1.064042 0.989316 1.022414
v 1.064042 1.540048 1.072537
v 1.064042 0.989316 1.072537
v 0.976393 1.540048 0.984889
v 0.976393 0.989316 0.984889
v 0.976393 1.540048 1.072537
v 0.976393 0.989316 1.072537
v 1.082220 1.578681 1.022414
v 1.082220 1.578681 1.072537
v 0.999248 1.606928 0.984889
v 0.999248 1.606928 1.072537
v 1.256074 1.626812 0.987955
v 1.256074 1.626812 1.069471
v 1.256074 1.704114 0.987955
v 1.256074 1.704114 1.069471
v 1.448107 1.540048 1.022414
v 1.448107 0.989316 1.022414
v 1.448107 1.540048 1.072537
v 1.448107 0.989316 1.072537
v 1.535756 1.540048 0.984889
v 1.535756 0.989316 0.984889
v 1.535756 1.540048 1.072537
v 1.535756 0.989316 1.072537
v 1.429929 1.578681 1.022414
v 1.429929 1.578681 1.072537
v 1.512901 1.606928 0.984889
v 1.512901 1.606928 1.072537
v 1.256074 1.626812 1.025480
v 1.256074 1.626812 1.069471
v 1.256074 1.704114 0.987955
v 1.256074 1.704114 1.069471
v 1.126560 1.673128 0.986553
v 1.126560 1.673128 1.070873
v 1.156184 1.613358 1.070872
v 1.156184 1.613358 1.024078
v 1.374782 1.673381 0.986506
v 1.374782 1.673381 1.070920
v 1.340832 1.615817 1.070920
v 1.340832 1.615817 1.024031
v 1.236320 0.959521 1.049981
v 1.236320 1.648003 1.049981
v 1.236320 0.959521 1.005143
v 1.236320 1.648003 1.005143
v 1.281157 0.959521 1.049981
v 1.281157 1.648003 1.049981
v 1.281157 0.959521 1.005143
v 1.281157 1.648003 1.005143
v 1.236320 1.358244 1.049981
v 1.236320 1.358244 1.005143
v 1.281157 1.358244 1.005143
v 1.281157 1.358244 1.049981
v 1.236320 1.405778 1.049981
v 1.236320 1.405778 1.005143
v 1.281157 1.405778 1.005143
v 1.281157 1.405778 1.049981
v 1.481301 1.358244 1.005143
v 1.481301 1.358244 1.049981
v 1.481301 1.405778 1.005143
v 1.481301 1.405778 1.049981
v 1.024304 1.358244 1.049981
v 1.024304 1.358244 1.005143
v 1.024304 1.405778 1.049981
v 1.024304 1.405778 1.005143
v 1.236320 1.208184 1.005143
v 1.236320 1.208184 1.049981
v 1.281157 1.208184 1.005143
v 1.281157 1.208184 1.049981
v 1.236320 1.166989 1.005143
v 1.281157 1.166989 1.005143
v 1.281157 1.166989 1.049981
v 1.236320 1.166989 1.049981
v 1.474516 1.208184 1.005143
v 1.474516 1.208184 1.049981
v 1.474516 1.166989 1.005143
v 1.474516 1.166989 1.049981
v 1.037873 1.166989 1.049981
v 1.037873 1.208184 1.049981
v 1.037873 1.208184 1.005143
v 1.037873 1.166989 1.005143
v -1.535958 1.540048 1.022414
v -1.535958 0.989316 1.022414
v -1.535958 1.540048 1.072537
v -1.535958 0.989316 1.072537
v -1.623607 1.540048 0.984889
v -1.623607 0.989316 0.984889
v -1.623607 1.540048 1.072537
v -1.623607 0.989316 1.072537
v -1.517780 1.578681 1.022414
v -1.517780 1.578681 1.072537
v -1.600752 1.606928 0.984889
v -1.600752 1.606928 1.072537
v -1.343926 1.626812 0.987955
v -1.343926 1.626812 1.069471
v -1.343926 1.704114 0.987955
v -1.343926 1.704114 1.069471
v -1.151893 1.540048 1.022414
v -1.151893 0.989316 1.022414
v -1.151893 1.540048 1.072537
v -1.151893 0.989316 1.072537
v -1.064245 1.540048 0.984889
v -1.064245 0.989316 0.984889
v -1.064245 1.540048 1.072537
v -1.064245 0.989316 1.072537
v -1.170071 1.578681 1.022414
v -1.170071 1.578681 1.072537
v -1.087099 1.606928 0.984889
v -1.087099 1.606928 1.072537
v -1.343926 1.626812 1.025480
v -1.343926 1.626812 1.069471
v -1.343926 1.704114 0.987955
v -1.343926 1.704114 1.069471
v -1.473441 1.673128 0.986553
v -1.473441 1.673128 1.070873
v -1.443816 1.613358 1.070872
v -1.443816 1.613358 1.024078
v -1.225218 1.673381 0.986506
v -1.225218 1.673381 1.070920
v -1.259168 1.615817 1.070920
v -1.259168 1.615817 1.024031
v -1.363680 0.959521 1.049981
v -1.363680 1.648003 1.049981
v -1.363680 0.959521 1.005143
v -1.363680 1.648003 1.005143
v -1.318843 0.959521 1.049981
v -1.318843 1.648003 1.049981
v -1.318843 0.959521 1.005143
v -1.318843 1.648003 1.005143
v -1.363680 1.358244 1.049981
v -1.363680 1.358244 1.005143
v -1.318843 1.358244 1.005143
v -1.318843 1.358244 1.049981
v -1.363680 1.405778 1.049981
v -1.363680 1.405778 1.005143
v -1.318843 1.405778 1.005143
v -1.318843 1.405778 1.049981
v -1.118700 1.358244 1.005143
v -1.118700 1.358244 1.049981
v -1.118700 1.405778 1.005143
v -1.118700 1.405778 1.049981
v -1.575696 1.358244 1.049981
v -1.575696 1.358244 1.005143
v -1.575696 1.405778 1.049981
v -1.575696 1.405778 1.005143
v -1.363680 1.208184 1.005143
v -1.363680 1.208184 1.049981
v -1.318843 1.208184 1.005143
v -1.318843 1.208184 1.049981
v -1.363680 1.166989 1.005143
v -1.318843 1.166989 1.005143
v -1.318843 1.166989 1.049981
v -1.363680 1.166989 1.049981
v -1.125484 1.208184 1.005143
v -1.125484 1.208184 1.049981
v -1.125484 1.166989 1.005143
v -1.125484 1.166989 1.049981
v -1.562127 1.166989 1.049981
v -1.562127 1.208184 1.049981
v -1.562127 1.208184 1.005143
v -1.562127 1.166989 1.005143
v -1.667974 1.001418 1.131080
v -1.667974 0.951924 1.131080
v -1.667974 1.001418 0.892786
v -1.667974 0.951924 0.892786
v -1.009729 1.001418 1.131080
v -1.009729 0.951924 1.131080
v -1.009729 1.001418 0.892786
v -1.009729 0.951924 0.892786
v 2.128808 2.000000 -1.083463
v 2.128806 2.000000 1.083464
v -2.128808 2.000000 1.083463
v -2.128807 2.000000 -1.083463
v 2.128808 2.127970 -1.083463
v 2.128806 2.127970 1.083464
v -2.128807 2.127970 -1.083463
v -2.128808 2.127970 1.083463
v 2.128808 3.053294 -0.085312
v 2.128806 3.053294 0.085312
v -2.128807 3.053294 -0.085312
v -2.128808 3.053294 0.085312
v -0.664502 -0.128819 1.370938
v -0.664502 0.129424 1.370938
v -0.664502 -0.128819 0.965614
v -0.664502 0.129424 0.965614
v 0.664502 -0.128819 1.370938
v 0.664502 0.129424 1.370938
v 0.664502 -0.128819 0.965614
v 0.664502 0.129424 0.965614
v -0.552415 0.106438 1.107293
v -0.552415 0.306103 1.107293
v -0.552415 0.106438 0.960572
v -0.552415 0.306103 0.960572
v -0.352750 0.106438 1.107293
v -0.352750 0.306103 1.107293
v -0.352750 0.306103 0.960572
v -0.546353 1.448762 1.107293
v -0.546353 1.448762 0.960572
v -0.358812 1.380244 1.107293
v -0.358812 1.380244 0.960572
v -0.440058 1.624761 1.107293
v -0.440058 1.624761 0.960572
v -0.284639 1.499417 1.107293
v -0.276345 1.501966 0.958405
v -0.154982 1.738890 1.094280
v -0.154982 1.738890 0.973585
v -0.143520 1.565628 1.094280
v -0.143520 1.565628 0.973585
v 0.096691 1.711908 1.094280
v 0.096691 1.711908 0.973585
v 0.036228 1.549135 1.094280
v 0.036228 1.549135 0.973585
v 0.340161 1.618088 1.094280
v 0.340161 1.618088 0.973585
v 0.238316 1.477452 1.094280
v 0.238316 1.477452 0.973585
v 0.451591 1.474212 1.094280
v 0.451591 1.474212 0.973585
v 0.311595 1.371488 1.094280
v 0.311595 1.371488 0.973585
v 0.521868 0.120156 1.094280
v 0.521868 0.120156 0.973585
v 0.311498 0.122993 1.094280
v 0.311498 0.122993 0.973585
v 0.311512 0.305808 0.973585
v 0.311512 0.305808 1.094280
v 0.511578 0.318428 1.094280
v 0.511578 0.318428 0.973585
v -0.552415 0.106438 1.047846
v -0.552415 0.306103 1.047846
v -0.352750 0.106438 1.055958
v -0.352750 0.306103 1.047846
v -0.546353 1.448762 1.047846
v -0.358812 1.380244 1.047846
v -0.440058 1.624761 1.047846
v -0.284639 1.499417 1.047846
v -0.154982 1.738890 1.045378
v -0.143520 1.565628 1.045378
v 0.096691 1.711908 1.045378
v 0.036228 1.549135 1.045378
v 0.340161 1.618088 1.045378
v 0.238316 1.477452 1.045378
v 0.451591 1.474212 1.045378
v 0.311595 1.371488 1.045378
v 0.521868 0.120156 1.045377
v 0.311498 0.122993 1.055958
v 0.511578 0.318428 1.045377
v 0.311512 0.305808 1.045377
v -0.250700 0.308746 1.055958
v -0.106753 0.321222 1.055958
v 0.011629 0.331088 1.055958
v 0.229211 0.334272 1.055958
v -0.354806 0.696829 0.960572
v -0.354806 0.696829 1.107293
v -0.550359 0.696829 1.107293
v -0.550359 0.696829 0.960572
v 0.311540 0.696829 1.094280
v 0.491226 0.696829 0.973585
v 0.311540 0.696829 0.973585
v 0.491226 0.696829 1.094280
v -0.119227 0.696829 1.045378
v 0.311540 0.696829 1.045378
v 0.491226 0.696829 1.045378
v -0.550359 0.696829 1.047846
v -0.354806 0.696829 1.047846
v -0.262215 0.696829 1.047845
v 0.019975 0.696829 1.039801
v 0.232300 0.696829 1.040365
v -0.355549 0.835507 0.960572
v -0.549616 0.835507 1.107293
v 0.311551 0.835507 1.094280
v 0.483876 0.835507 0.973585
v -0.549616 0.835507 1.047846
v -0.355549 0.835507 1.047846
v -0.355549 0.835507 1.107293
v -0.549616 0.835507 0.960572
v 0.311551 0.835507 0.973585
v 0.483876 0.835507 1.094280
v -0.123731 0.835507 1.045378
v 0.311551 0.835507 1.045378
v 0.483876 0.835507 1.045378
v -0.266373 0.835507 1.047845
v 0.022989 0.835507 1.040835
v 0.233415 0.835507 1.041294
v -0.252079 0.105532 1.055958
v -0.108132 0.105532 1.055958
v 0.010250 0.105532 1.055958
v 0.227832 0.105532 1.055958
v -0.115259 0.829157 1.079816
v -0.111161 0.702986 1.079816
v 0.280767 0.829157 1.079816
v 0.280758 0.702986 1.079816
v -0.245036 0.829157 1.082062
v -0.241254 0.702986 1.082062
v 0.018229 0.829157 1.075684
v 0.015487 0.702986 1.074743
v 0.209678 0.829157 1.076102
v 0.208664 0.702986 1.075256
v -0.325495 0.702986 1.082062
v -0.326171 0.829157 1.082062
vn 0.4829 0.8757 0.0000
vn 1.0000 0.0000 0.0000
vn -0.0000 -0.0000 1.0000
vn -1.0000 -0.0000 -0.0000
vn 0.0000 0.0000 -1.0000
vn -0.4829 0.8757 -0.0000
vn -0.0000 0.6717 0.7409
vn 0.0000 0.6717 -0.7409
vn 0.0000 -1.0000 -0.0000
vn 0.0000 1.0000 0.0000
vn -0.3778 0.1469 0.9142
vn 0.2327 -0.9726 -0.0000
vn -0.9048 0.4258 0.0000
vn 0.9463 -0.3234 0.0000
vn -0.1335 0.9911 0.0000
vn 0.0902 0.2811 0.9554
vn -0.0117 -0.0025 -0.9999
vn 0.3778 0.1469 0.9142
vn -0.2506 -0.9681 -0.0000
vn 0.9048 0.4258 0.0000
vn -0.9463 -0.3234 0.0000
vn 0.1286 0.9917 0.0000
vn 0.1074 0.4627 0.8800
vn 0.0135 -0.0034 -0.9999
vn -0.0101 -0.0129 -0.9999
vn -0.2345 0.4394 0.8672
vn -0.4245 0.9054 0.0000
vn 0.4613 -0.8872 0.0000
vn 0.0088 -0.0120 -0.9999
vn 0.2198 0.4552 0.8629
vn 0.3847 0.9230 0.0000
vn -0.4336 -0.9011 0.0000
vn -0.0000 0.0024 -1.0000
vn -0.0000 0.7334 0.6798
vn 0.0000 0.7334 -0.6798
vn -0.8560 0.5170 0.0000
vn -1.0000 0.0053 0.0000
vn 0.0493 0.0276 0.9984
vn -0.0075 -0.0025 -1.0000
vn 0.0513 0.0377 -0.9980
vn -0.3717 0.9284 -0.0000
vn 0.1066 0.9943 0.0000
vn 0.3596 0.9331 0.0000
vn 0.7906 0.6123 -0.0000
vn -0.0135 -0.9999 0.0000
vn 0.9987 0.0518 -0.0000
vn 0.9986 0.0537 -0.0000
vn -1.0000 0.0001 0.0000
vn -0.8225 -0.5688 0.0000
vn -0.3343 -0.9425 0.0000
vn 0.4248 -0.9053 0.0000
vn -0.0914 -0.9958 -0.0000
vn 0.8490 -0.5284 0.0000
vn 1.0000 0.0060 0.0000
vn 0.0173 0.0005 0.9999
vn -0.0418 0.0097 0.9991
vn 0.0138 -0.0031 0.9999
vn -0.0016 0.0436 0.9990
vn -0.0293 -0.0033 0.9996
vn 0.0380 0.0205 0.9991
vn 0.0000 0.9832 0.1825
vn 0.0202 0.0361 0.9991
vn 0.0056 0.9836 0.1800
vn 0.0075 0.0247 0.9997
vn 1.0000 0.0053 0.0000
vn 0.9986 0.0529 0.0000
vn 0.9987 0.0505 -0.0000
vn -0.0022 -0.0063 1.0000
vn -0.0005 -0.9848 0.1735
vn 0.0030 -0.9845 0.1753
vn -0.0091 0.9848 0.1735
vn 1.0000 0.0054 0.0000
vn -1.0000 0.0054 0.0000
vn -0.0401 0.0203 0.9990
vn 0.0653 0.0254 0.9975
vn -0.0024 -0.0070 1.0000
vn -0.0577 -0.0031 0.9983
vn 0.0354 -0.0035 0.9994
vn 0.0070 -0.9847 0.1744
vn 0.0031 0.9836 0.1806
vn 0.0000 -0.9842 0.1771
vn -0.7591 -0.0041 0.6510
vn -0.0004 0.9838 0.1792
vn 0.7456 -0.0001 0.6664
vn -0.0106 -0.9859 0.1668
s off
f 1//1 2//1 10//1 9//1
f 1//2 5//2 6//2 2//2
f 2//3 6//3 7//3 3//3
f 3//4 7//4 8//4 4//4
f 5//5 1//5 4//5 8//5
f 12//5 9//5 13//5 16//5
f 3//6 4//6 12//6 11//6
f 2//7 3//7 11//7 10//7
f 4//8 1//8 9//8 12//8
f 13//9 14//9 15//9 16//9
f 10//3 11//3 15//3 14//3
f 9//2 10//2 14//2 13//2
f 11//4 12//4 16//4 15//4
f 17//2 18//2 20//2 19//2
f 23//4 24//4 22//4 21//4
f 21//5 22//5 18//5 17//5
f 19//9 23//9 21//9 17//9
f 24//10 20//10 18//10 22//10
f 25//4 26//4 28//4 27//4
f 27//5 28//5 32//5 31//5
f 31//2 32//2 30//2 29//2
f 29//11 25//11 33//11 35//11
f 32//10 28//10 26//10 30//10
f 58//12 57//12 39//12 40//12
f 27//5 31//5 36//5 34//5
f 25//13 27//13 34//13 33//13
f 31//14 29//14 35//14 36//14
f 38//4 40//4 39//4 37//4
f 60//15 59//15 38//15 37//15
f 57//16 60//16 37//16 39//16
f 59//17 58//17 40//17 38//17
f 41//2 43//2 44//2 42//2
f 43//5 47//5 48//5 44//5
f 47//4 45//4 46//4 48//4
f 45//18 51//18 49//18 41//18
f 48//10 46//10 42//10 44//10
f 62//19 56//19 55//19 61//19
f 43//5 50//5 52//5 47//5
f 41//20 49//20 50//20 43//20
f 47//21 52//21 51//21 45//21
f 54//2 53//2 55//2 56//2
f 64//22 53//22 54//22 63//22
f 61//23 55//23 53//23 64//23
f 63//24 54//24 56//24 62//24
f 34//25 36//25 58//25 59//25
f 35//26 33//26 60//26 57//26
f 33//27 34//27 59//27 60//27
f 36//28 35//28 57//28 58//28
f 50//29 63//29 62//29 52//29
f 51//30 61//30 64//30 49//30
f 49//31 64//31 63//31 50//31
f 52//32 62//32 61//32 51//32
f 25//33 33//33 60//33 53//33 64//33 49//33 41//33 42//33 26//33
f 77//4 66//4 68//4 78//4
f 90//4 73//4 74//4 89//4
f 79//2 72//2 70//2 80//2
f 80//3 70//3 66//3 77//3
f 92//3 76//3 73//3 90//3
f 91//2 75//2 76//2 92//2
f 76//3 80//3 77//3 73//3
f 76//9 75//9 81//9 82//9
f 73//3 77//3 87//3 85//3
f 94//5 91//5 97//5 99//5
f 80//3 76//3 82//3 84//3
f 79//10 80//10 84//10 83//10
f 75//5 79//5 83//5 81//5
f 95//3 92//3 90//3 96//3
f 78//5 74//5 86//5 88//5
f 74//9 73//9 85//9 86//9
f 77//10 78//10 88//10 87//10
f 96//3 90//3 102//3 101//3
f 65//4 96//4 93//4 67//4
f 69//3 95//3 96//3 65//3
f 71//2 94//2 95//2 69//2
f 91//10 92//10 98//10 97//10
f 95//9 94//9 99//9 100//9
f 92//3 95//3 100//3 98//3
f 90//10 89//10 103//10 102//10
f 93//9 96//9 101//9 104//9
f 89//5 93//5 104//5 103//5
f 105//4 106//4 108//4 107//4
f 107//5 108//5 112//5 111//5
f 111//2 112//2 110//2 109//2
f 109//11 105//11 113//11 115//11
f 112//10 108//10 106//10 110//10
f 138//12 137//12 119//12 120//12
f 107//5 111//5 116//5 114//5
f 105//13 107//13 114//13 113//13
f 111//14 109//14 115//14 116//14
f 118//4 120//4 119//4 117//4
f 140//15 139//15 118//15 117//15
f 137//16 140//16 117//16 119//16
f 139//17 138//17 120//17 118//17
f 121//2 123//2 124//2 122//2
f 123//5 127//5 128//5 124//5
f 127//4 125//4 126//4 128//4
f 125//18 131//18 129//18 121//18
f 128//10 126//10 122//10 124//10
f 142//19 136//19 135//19 141//19
f 123//5 130//5 132//5 127//5
f 121//20 129//20 130//20 123//20
f 127//21 132//21 131//21 125//21
f 134//2 133//2 135//2 136//2
f 144//22 133//22 134//22 143//22
f 141//23 135//23 133//23 144//23
f 143//24 134//24 136//24 142//24
f 114//25 116//25 138//25 139//25
f 115//26 113//26 140//26 137//26
f 113//27 114//27 139//27 140//27
f 116//28 115//28 137//28 138//28
f 130//29 143//29 142//29 132//29
f 131//30 141//30 144//30 129//30
f 129//31 144//31 143//31 130//31
f 132//32 142//32 141//32 131//32
f 105//33 113//33 140//33 133//33 144//33 129//33 121//33 122//33 106//33
f 157//4 146//4 148//4 158//4
f 170//4 153//4 154//4 169//4
f 159//2 152//2 150//2 160//2
f 160//3 150//3 146//3 157//3
f 172//3 156//3 153//3 170//3
f 171//2 155//2 156//2 172//2
f 156//3 160//3 157//3 153//3
f 156//9 155//9 161//9 162//9
f 153//3 157//3 167//3 165//3
f 174//5 171//5 177//5 179//5
f 160//3 156//3 162//3 164//3
f 159//10 160//10 164//10 163//10
f 155//5 159//5 163//5 161//5
f 175//3 172//3 170//3 176//3
f 158//5 154//5 166//5 168//5
f 154//9 153//9 165//9 166//9
f 157//10 158//10 168//10 167//10
f 176//3 170//3 182//3 181//3
f 145//4 176//4 173//4 147//4
f 149//3 175//3 176//3 145//3
f 151//2 174//2 175//2 149//2
f 171//10 172//10 178//10 177//10
f 175//9 174//9 179//9 180//9
f 172//3 175//3 180//3 178//3
f 170//10 169//10 183//10 182//10
f 173//9 176//9 181//9 184//9
f 169//5 173//5 184//5 183//5
f 185//2 186//2 188//2 187//2
f 191//4 192//4 190//4 189//4
f 189//5 190//5 186//5 185//5
f 187//9 191//9 189//9 185//9
f 192//10 188//10 186//10 190//10
f 193//9 194//9 195//9 196//9
f 200//34 198//34 202//34 204//34
f 195//3 194//3 198//3 200//3
f 194//2 193//2 197//2 198//2
f 196//4 195//4 200//4 199//4
f 193//5 196//5 199//5 197//5
f 201//10 203//10 204//10 202//10
f 198//2 197//2 201//2 202//2
f 199//4 200//4 204//4 203//4
f 197//35 199//35 203//35 201//35
f 205//4 206//4 208//4 207//4
f 211//2 212//2 210//2 209//2
f 209//3 210//3 206//3 205//3
f 207//9 211//9 209//9 205//9
f 212//10 208//10 206//10 210//10
f 252//4 253//4 216//4 215//4
f 254//2 255//2 218//2 217//2
f 217//3 218//3 214//3 213//3
f 252//9 254//9 217//9 213//9
f 256//36 220//36 224//36 258//36
f 296//37 293//37 220//37 256//37
f 293//3 298//3 222//3 220//3
f 292//5 299//5 221//5 223//5
f 224//38 226//38 230//38 228//38
f 220//3 222//3 226//3 224//3
f 223//39 221//39 225//39 227//39
f 227//40 225//40 229//40 231//40
f 258//41 224//41 228//41 260//41
f 232//3 234//3 238//3 236//3
f 260//42 228//42 232//42 262//42
f 228//3 230//3 234//3 232//3
f 231//5 229//5 233//5 235//5
f 239//5 237//5 241//5 243//5
f 235//5 233//5 237//5 239//5
f 262//43 232//43 236//43 264//43
f 264//44 236//44 240//44 266//44
f 236//3 238//3 242//3 240//3
f 269//45 268//45 244//45 246//45
f 270//46 250//46 244//46 268//46
f 250//3 249//3 246//3 244//3
f 248//5 251//5 245//5 247//5
f 282//5 281//5 251//5 248//5
f 283//3 280//3 249//3 250//3
f 286//47 283//47 250//47 270//47
f 280//48 285//48 271//48 249//48
f 281//47 286//47 270//47 251//47
f 251//46 270//46 268//46 245//46
f 237//44 264//44 266//44 241//44
f 238//49 265//49 267//49 242//49
f 249//48 271//48 269//48 246//48
f 233//43 262//43 264//43 237//43
f 234//50 263//50 265//50 238//50
f 229//42 260//42 262//42 233//42
f 225//41 258//41 260//41 229//41
f 226//51 259//51 261//51 230//51
f 230//52 261//52 263//52 234//52
f 222//53 257//53 259//53 226//53
f 299//37 296//37 256//37 221//37
f 221//36 256//36 258//36 225//36
f 298//54 297//54 257//54 222//54
f 302//55 261//55 259//55 305//55
f 213//4 214//4 253//4 252//4
f 288//56 255//56 272//56 289//56
f 302//57 306//57 263//57 261//57
f 291//58 290//58 274//58 275//58
f 303//59 267//59 265//59 307//59
f 271//60 285//60 291//60 275//60
f 305//61 297//61 323//61 316//61
f 273//62 274//62 290//62 284//62
f 306//63 302//63 312//63 318//63
f 273//64 284//64 289//64 272//64
f 218//65 255//65 288//65 277//65
f 216//37 253//37 287//37 279//37
f 295//66 304//66 286//66 281//66
f 294//48 303//48 285//48 280//48
f 304//66 301//66 283//66 286//66
f 301//3 294//3 280//3 283//3
f 300//5 295//5 281//5 282//5
f 219//5 216//5 279//5 276//5
f 214//3 218//3 277//3 278//3
f 253//37 214//37 278//37 287//37
f 243//5 241//5 295//5 300//5
f 240//3 242//3 294//3 301//3
f 266//67 240//67 301//67 304//67
f 242//48 267//48 303//48 294//48
f 241//67 266//67 304//67 295//67
f 257//3 297//3 305//3 259//3
f 265//68 263//68 306//68 307//68
f 290//69 291//69 321//69 319//69
f 289//70 284//70 313//70 317//70
f 303//71 307//71 320//71 314//71
f 277//72 288//72 297//72 298//72
f 279//73 287//73 296//73 299//73
f 276//5 279//5 299//5 292//5
f 278//3 277//3 298//3 293//3
f 287//73 278//73 293//73 296//73
f 275//3 274//3 310//3 311//3
f 274//3 273//3 309//3 310//3
f 273//3 272//3 308//3 309//3
f 254//74 308//74 272//74 255//74
f 271//75 275//75 311//75 269//75
f 320//76 318//76 319//76 321//76
f 323//3 322//3 317//3 316//3
f 315//77 314//77 320//77 321//77
f 313//78 319//78 318//78 312//78
f 313//55 312//55 316//55 317//55
f 284//79 290//79 319//79 313//79
f 302//80 305//80 316//80 312//80
f 288//81 289//81 317//81 322//81
f 297//82 288//82 322//82 323//82
f 307//83 306//83 318//83 320//83
f 285//84 303//84 314//84 315//84
f 291//85 285//85 315//85 321//85
